<mxfile host="app.diagrams.net" modified="2024-05-15T16:41:04.960Z" agent="Mozilla/5.0 (Windows NT 10.0; Win64; x64) AppleWebKit/537.36 (KHTML, like Gecko) Chrome/124.0.0.0 Safari/537.36 Edg/124.0.0.0" etag="Hkl7HWZcN6wszd0kgxAL" version="24.4.0" type="github" pages="2">
  <diagram name="Page-1" id="9f46799a-70d6-7492-0946-bef42562c5a5">
    <mxGraphModel dx="3632" dy="1138" grid="0" gridSize="10" guides="1" tooltips="1" connect="1" arrows="1" fold="1" page="1" pageScale="1" pageWidth="1100" pageHeight="850" background="none" math="0" shadow="1">
      <root>
        <mxCell id="0" />
        <mxCell id="1" parent="0" />
        <mxCell id="jqyQrgZry3oG7Yk4CvfF-23" style="edgeStyle=orthogonalEdgeStyle;rounded=0;orthogonalLoop=1;jettySize=auto;html=1;exitX=0.5;exitY=0;exitDx=0;exitDy=0;entryX=0;entryY=0.5;entryDx=0;entryDy=0;labelBackgroundColor=none;strokeColor=#E07A5F;fontColor=default;" parent="1" source="jqyQrgZry3oG7Yk4CvfF-1" target="jqyQrgZry3oG7Yk4CvfF-22" edge="1">
          <mxGeometry relative="1" as="geometry" />
        </mxCell>
        <mxCell id="jqyQrgZry3oG7Yk4CvfF-25" value="&lt;font style=&quot;font-size: 13px;&quot;&gt;1,N&lt;/font&gt;" style="edgeLabel;html=1;align=center;verticalAlign=middle;resizable=0;points=[];labelBackgroundColor=none;fontColor=#393C56;" parent="jqyQrgZry3oG7Yk4CvfF-23" vertex="1" connectable="0">
          <mxGeometry x="-0.3633" y="2" relative="1" as="geometry">
            <mxPoint x="7" y="-10" as="offset" />
          </mxGeometry>
        </mxCell>
        <mxCell id="jqyQrgZry3oG7Yk4CvfF-32" style="edgeStyle=orthogonalEdgeStyle;rounded=0;orthogonalLoop=1;jettySize=auto;html=1;exitX=0.008;exitY=0.215;exitDx=0;exitDy=0;entryX=0.5;entryY=0;entryDx=0;entryDy=0;labelBackgroundColor=none;strokeColor=#E07A5F;fontColor=default;exitPerimeter=0;" parent="1" source="jqyQrgZry3oG7Yk4CvfF-1" edge="1">
          <mxGeometry relative="1" as="geometry">
            <mxPoint x="-715.0000000000005" y="452" as="targetPoint" />
            <Array as="points">
              <mxPoint x="-632" y="302" />
              <mxPoint x="-715" y="302" />
            </Array>
          </mxGeometry>
        </mxCell>
        <mxCell id="jqyQrgZry3oG7Yk4CvfF-36" value="&lt;div&gt;1,1&lt;/div&gt;&lt;div&gt;&lt;br&gt;&lt;/div&gt;" style="edgeLabel;html=1;align=center;verticalAlign=middle;resizable=0;points=[];labelBackgroundColor=none;fontColor=#393C56;" parent="jqyQrgZry3oG7Yk4CvfF-32" vertex="1" connectable="0">
          <mxGeometry x="-0.4821" y="2" relative="1" as="geometry">
            <mxPoint x="11" y="-5" as="offset" />
          </mxGeometry>
        </mxCell>
        <mxCell id="jqyQrgZry3oG7Yk4CvfF-1" value="Pacientes" style="swimlane;childLayout=stackLayout;horizontal=1;startSize=50;horizontalStack=0;rounded=1;fontSize=14;fontStyle=0;strokeWidth=2;resizeParent=0;resizeLast=1;shadow=0;dashed=0;align=center;arcSize=4;whiteSpace=wrap;html=1;labelBackgroundColor=none;fillColor=#F2CC8F;strokeColor=#E07A5F;fontColor=#393C56;" parent="1" vertex="1">
          <mxGeometry x="-633" y="252" width="160" height="204" as="geometry">
            <mxRectangle x="80" y="90" width="100" height="50" as="alternateBounds" />
          </mxGeometry>
        </mxCell>
        <mxCell id="jqyQrgZry3oG7Yk4CvfF-2" value="&lt;font&gt;&lt;font&gt;Pk_Id_Paciente&lt;/font&gt;&lt;/font&gt;&lt;div&gt;&lt;div&gt;&lt;font&gt;Nome_Paciente&lt;/font&gt;&lt;/div&gt;&lt;div&gt;&lt;font&gt;Data_Nascimento&lt;/font&gt;&lt;/div&gt;&lt;div&gt;&lt;span style=&quot;background-color: initial;&quot;&gt;CPF&lt;/span&gt;&lt;/div&gt;&lt;div&gt;&lt;span style=&quot;background-color: initial;&quot;&gt;RG&lt;/span&gt;&lt;/div&gt;&lt;div&gt;&lt;span style=&quot;background-color: initial;&quot;&gt;Endereco&lt;/span&gt;&lt;/div&gt;&lt;div&gt;&lt;span style=&quot;background-color: initial;&quot;&gt;Telefone&lt;/span&gt;&lt;/div&gt;&lt;div&gt;&lt;span style=&quot;background-color: initial;&quot;&gt;Email&lt;/span&gt;&lt;/div&gt;&lt;div&gt;&lt;span style=&quot;background-color: initial;&quot;&gt;Fk_Id_Convenio&lt;/span&gt;&lt;/div&gt;&lt;div&gt;&lt;span style=&quot;background-color: initial;&quot;&gt;Numero_Carteirinha&lt;/span&gt;&lt;/div&gt;&lt;/div&gt;" style="align=left;strokeColor=none;fillColor=none;spacingLeft=4;fontSize=12;verticalAlign=top;resizable=0;rotatable=0;part=1;html=1;labelBackgroundColor=none;fontColor=#393C56;" parent="jqyQrgZry3oG7Yk4CvfF-1" vertex="1">
          <mxGeometry y="50" width="160" height="154" as="geometry" />
        </mxCell>
        <mxCell id="jqyQrgZry3oG7Yk4CvfF-3" style="edgeStyle=orthogonalEdgeStyle;rounded=0;orthogonalLoop=1;jettySize=auto;html=1;exitX=0.5;exitY=1;exitDx=0;exitDy=0;labelBackgroundColor=none;strokeColor=#E07A5F;fontColor=default;" parent="jqyQrgZry3oG7Yk4CvfF-1" source="jqyQrgZry3oG7Yk4CvfF-2" target="jqyQrgZry3oG7Yk4CvfF-2" edge="1">
          <mxGeometry relative="1" as="geometry" />
        </mxCell>
        <mxCell id="jqyQrgZry3oG7Yk4CvfF-28" style="edgeStyle=orthogonalEdgeStyle;rounded=0;orthogonalLoop=1;jettySize=auto;html=1;exitX=0.5;exitY=0;exitDx=0;exitDy=0;entryX=1;entryY=0.5;entryDx=0;entryDy=0;labelBackgroundColor=none;strokeColor=#E07A5F;fontColor=default;" parent="1" source="jqyQrgZry3oG7Yk4CvfF-7" target="jqyQrgZry3oG7Yk4CvfF-27" edge="1">
          <mxGeometry relative="1" as="geometry">
            <Array as="points">
              <mxPoint x="188" y="246" />
              <mxPoint x="188" y="190" />
            </Array>
          </mxGeometry>
        </mxCell>
        <mxCell id="jqyQrgZry3oG7Yk4CvfF-31" value="1,N&lt;div&gt;&lt;br&gt;&lt;/div&gt;" style="edgeLabel;html=1;align=center;verticalAlign=middle;resizable=0;points=[];labelBackgroundColor=none;fontColor=#393C56;" parent="jqyQrgZry3oG7Yk4CvfF-28" vertex="1" connectable="0">
          <mxGeometry x="-0.2225" relative="1" as="geometry">
            <mxPoint y="-7" as="offset" />
          </mxGeometry>
        </mxCell>
        <mxCell id="jqyQrgZry3oG7Yk4CvfF-7" value="Medico" style="swimlane;childLayout=stackLayout;horizontal=1;startSize=50;horizontalStack=0;rounded=1;fontSize=14;fontStyle=0;strokeWidth=2;resizeParent=0;resizeLast=1;shadow=0;dashed=0;align=center;arcSize=4;whiteSpace=wrap;html=1;labelBackgroundColor=none;fillColor=#F2CC8F;strokeColor=#E07A5F;fontColor=#393C56;" parent="1" vertex="1">
          <mxGeometry x="168" y="246" width="160" height="146" as="geometry" />
        </mxCell>
        <mxCell id="jqyQrgZry3oG7Yk4CvfF-8" value="&lt;div&gt;Pk_id_Medico&lt;/div&gt;&lt;div&gt;Nome_Medico&lt;/div&gt;&lt;div&gt;CRM&lt;/div&gt;&lt;div&gt;Especialidade&lt;/div&gt;&lt;div&gt;Telefone&lt;/div&gt;&lt;div&gt;Email&lt;/div&gt;" style="align=left;strokeColor=none;fillColor=none;spacingLeft=4;fontSize=12;verticalAlign=top;resizable=0;rotatable=0;part=1;html=1;labelBackgroundColor=none;fontColor=#393C56;" parent="jqyQrgZry3oG7Yk4CvfF-7" vertex="1">
          <mxGeometry y="50" width="160" height="96" as="geometry" />
        </mxCell>
        <mxCell id="jqyQrgZry3oG7Yk4CvfF-29" style="edgeStyle=orthogonalEdgeStyle;rounded=0;orthogonalLoop=1;jettySize=auto;html=1;exitX=0.5;exitY=0;exitDx=0;exitDy=0;entryX=0;entryY=0.5;entryDx=0;entryDy=0;labelBackgroundColor=none;strokeColor=#E07A5F;fontColor=default;" parent="1" source="jqyQrgZry3oG7Yk4CvfF-9" target="jqyQrgZry3oG7Yk4CvfF-27" edge="1">
          <mxGeometry relative="1" as="geometry">
            <Array as="points">
              <mxPoint x="-42" y="306" />
              <mxPoint x="-42" y="190" />
            </Array>
          </mxGeometry>
        </mxCell>
        <mxCell id="jqyQrgZry3oG7Yk4CvfF-30" value="1,N&lt;div&gt;&lt;br&gt;&lt;/div&gt;" style="edgeLabel;html=1;align=center;verticalAlign=middle;resizable=0;points=[];labelBackgroundColor=none;fontColor=#393C56;" parent="jqyQrgZry3oG7Yk4CvfF-29" vertex="1" connectable="0">
          <mxGeometry x="0.1384" y="1" relative="1" as="geometry">
            <mxPoint x="1" y="11" as="offset" />
          </mxGeometry>
        </mxCell>
        <mxCell id="7q9nNupDHfpOPj0fViD1-20" style="edgeStyle=orthogonalEdgeStyle;rounded=0;orthogonalLoop=1;jettySize=auto;html=1;exitX=0.5;exitY=0;exitDx=0;exitDy=0;entryX=0.5;entryY=1;entryDx=0;entryDy=0;labelBackgroundColor=none;strokeColor=#E07A5F;fontColor=default;" parent="1" source="jqyQrgZry3oG7Yk4CvfF-9" target="7q9nNupDHfpOPj0fViD1-18" edge="1">
          <mxGeometry relative="1" as="geometry" />
        </mxCell>
        <mxCell id="7q9nNupDHfpOPj0fViD1-22" value="N,1" style="edgeLabel;html=1;align=center;verticalAlign=middle;resizable=0;points=[];labelBackgroundColor=none;fontColor=#393C56;" parent="7q9nNupDHfpOPj0fViD1-20" vertex="1" connectable="0">
          <mxGeometry x="-0.1486" relative="1" as="geometry">
            <mxPoint as="offset" />
          </mxGeometry>
        </mxCell>
        <mxCell id="jqyQrgZry3oG7Yk4CvfF-9" value="Consulta (Entidade Associativa)" style="swimlane;childLayout=stackLayout;horizontal=1;startSize=50;horizontalStack=0;rounded=1;fontSize=14;fontStyle=0;strokeWidth=2;resizeParent=0;resizeLast=1;shadow=0;dashed=0;align=center;arcSize=4;whiteSpace=wrap;html=1;labelBackgroundColor=none;fillColor=#F2CC8F;strokeColor=#E07A5F;fontColor=#393C56;" parent="1" vertex="1">
          <mxGeometry x="-182" y="306" width="160" height="146" as="geometry" />
        </mxCell>
        <mxCell id="jqyQrgZry3oG7Yk4CvfF-10" value="&lt;div&gt;Pk_id_Consulta:&lt;/div&gt;&lt;div&gt;Fk_id_Paciente:&amp;nbsp;&lt;/div&gt;&lt;div&gt;Fk_id_Medico:&amp;nbsp;&lt;/div&gt;&lt;div&gt;Data_Consulta:&lt;/div&gt;&lt;div&gt;Hora_Consulta:&lt;/div&gt;" style="align=left;strokeColor=none;fillColor=none;spacingLeft=4;fontSize=12;verticalAlign=top;resizable=0;rotatable=0;part=1;html=1;labelBackgroundColor=none;fontColor=#393C56;" parent="jqyQrgZry3oG7Yk4CvfF-9" vertex="1">
          <mxGeometry y="50" width="160" height="96" as="geometry" />
        </mxCell>
        <mxCell id="jqyQrgZry3oG7Yk4CvfF-11" value="ProntuÃ¡rio" style="swimlane;childLayout=stackLayout;horizontal=1;startSize=50;horizontalStack=0;rounded=1;fontSize=14;fontStyle=0;strokeWidth=2;resizeParent=0;resizeLast=1;shadow=0;dashed=0;align=center;arcSize=4;whiteSpace=wrap;html=1;labelBackgroundColor=none;fillColor=#F2CC8F;strokeColor=#E07A5F;fontColor=#393C56;" parent="1" vertex="1">
          <mxGeometry x="-633" y="632" width="160" height="120" as="geometry" />
        </mxCell>
        <mxCell id="jqyQrgZry3oG7Yk4CvfF-12" value="&lt;div&gt;&lt;span style=&quot;background-color: initial;&quot;&gt;Pk_id_Prontuario&lt;/span&gt;&lt;br&gt;&lt;/div&gt;&lt;div&gt;Fk_id_Paciente&lt;/div&gt;&lt;div&gt;HistÃ³rico&lt;/div&gt;&lt;div&gt;&lt;br&gt;&lt;/div&gt;" style="align=left;strokeColor=none;fillColor=none;spacingLeft=4;fontSize=12;verticalAlign=top;resizable=0;rotatable=0;part=1;html=1;labelBackgroundColor=none;fontColor=#393C56;" parent="jqyQrgZry3oG7Yk4CvfF-11" vertex="1">
          <mxGeometry y="50" width="160" height="70" as="geometry" />
        </mxCell>
        <mxCell id="jqyQrgZry3oG7Yk4CvfF-13" value="Exame" style="swimlane;childLayout=stackLayout;horizontal=1;startSize=50;horizontalStack=0;rounded=1;fontSize=14;fontStyle=0;strokeWidth=2;resizeParent=0;resizeLast=1;shadow=0;dashed=0;align=center;arcSize=4;whiteSpace=wrap;html=1;labelBackgroundColor=none;fillColor=#F2CC8F;strokeColor=#E07A5F;fontColor=#393C56;" parent="1" vertex="1">
          <mxGeometry x="-302" y="632" width="160" height="120" as="geometry" />
        </mxCell>
        <mxCell id="jqyQrgZry3oG7Yk4CvfF-14" value="&lt;div&gt;&lt;span style=&quot;background-color: initial;&quot;&gt;Pk_id_Exame&lt;/span&gt;&lt;br&gt;&lt;/div&gt;&lt;div&gt;Nome_Exame&lt;/div&gt;&lt;div&gt;Tipo_Exame&lt;/div&gt;" style="align=left;strokeColor=none;fillColor=none;spacingLeft=4;fontSize=12;verticalAlign=top;resizable=0;rotatable=0;part=1;html=1;labelBackgroundColor=none;fontColor=#393C56;" parent="jqyQrgZry3oG7Yk4CvfF-13" vertex="1">
          <mxGeometry y="50" width="160" height="70" as="geometry" />
        </mxCell>
        <mxCell id="jqyQrgZry3oG7Yk4CvfF-15" value="Receitas" style="swimlane;childLayout=stackLayout;horizontal=1;startSize=50;horizontalStack=0;rounded=1;fontSize=14;fontStyle=0;strokeWidth=2;resizeParent=0;resizeLast=1;shadow=0;dashed=0;align=center;arcSize=4;whiteSpace=wrap;html=1;labelBackgroundColor=none;fillColor=#F2CC8F;strokeColor=#E07A5F;fontColor=#393C56;" parent="1" vertex="1">
          <mxGeometry x="-62" y="632" width="160" height="167" as="geometry" />
        </mxCell>
        <mxCell id="jqyQrgZry3oG7Yk4CvfF-16" value="&lt;div&gt;Pk_id_Receita&lt;/div&gt;&lt;div&gt;Fk_id_Consulta&lt;/div&gt;&lt;div&gt;Fk_Id_Paciente&lt;/div&gt;&lt;div&gt;Fk_Id_Medico&lt;/div&gt;&lt;div&gt;Data_Receita&lt;/div&gt;&lt;div&gt;CID&lt;/div&gt;&lt;div&gt;Prescricao&lt;/div&gt;" style="align=left;strokeColor=none;fillColor=none;spacingLeft=4;fontSize=12;verticalAlign=top;resizable=0;rotatable=0;part=1;html=1;labelBackgroundColor=none;fontColor=#393C56;" parent="jqyQrgZry3oG7Yk4CvfF-15" vertex="1">
          <mxGeometry y="50" width="160" height="117" as="geometry" />
        </mxCell>
        <mxCell id="jqyQrgZry3oG7Yk4CvfF-24" style="edgeStyle=orthogonalEdgeStyle;rounded=0;orthogonalLoop=1;jettySize=auto;html=1;exitX=1;exitY=0.5;exitDx=0;exitDy=0;labelBackgroundColor=none;strokeColor=#E07A5F;fontColor=default;" parent="1" source="jqyQrgZry3oG7Yk4CvfF-22" target="jqyQrgZry3oG7Yk4CvfF-9" edge="1">
          <mxGeometry relative="1" as="geometry">
            <Array as="points">
              <mxPoint x="-172" y="192" />
            </Array>
          </mxGeometry>
        </mxCell>
        <mxCell id="jqyQrgZry3oG7Yk4CvfF-22" value="Atendido" style="shape=rhombus;double=1;perimeter=rhombusPerimeter;whiteSpace=wrap;html=1;align=center;labelBackgroundColor=none;fillColor=#F2CC8F;strokeColor=#E07A5F;fontColor=#393C56;" parent="1" vertex="1">
          <mxGeometry x="-312" y="172" width="80" height="40" as="geometry" />
        </mxCell>
        <mxCell id="jqyQrgZry3oG7Yk4CvfF-27" value="Atende" style="shape=rhombus;double=1;perimeter=rhombusPerimeter;whiteSpace=wrap;html=1;align=center;labelBackgroundColor=none;fillColor=#F2CC8F;strokeColor=#E07A5F;fontColor=#393C56;" parent="1" vertex="1">
          <mxGeometry x="38" y="172" width="80" height="35" as="geometry" />
        </mxCell>
        <mxCell id="jqyQrgZry3oG7Yk4CvfF-33" value="Possui" style="shape=rhombus;double=1;perimeter=rhombusPerimeter;whiteSpace=wrap;html=1;align=center;labelBackgroundColor=none;fillColor=#F2CC8F;strokeColor=#E07A5F;fontColor=#393C56;" parent="1" vertex="1">
          <mxGeometry x="-775.0000000000002" y="452" width="120" height="60" as="geometry" />
        </mxCell>
        <mxCell id="jqyQrgZry3oG7Yk4CvfF-34" style="edgeStyle=orthogonalEdgeStyle;rounded=0;orthogonalLoop=1;jettySize=auto;html=1;exitX=0;exitY=0.25;exitDx=0;exitDy=0;entryX=0.5;entryY=1;entryDx=0;entryDy=0;labelBackgroundColor=none;strokeColor=#E07A5F;fontColor=default;" parent="1" source="jqyQrgZry3oG7Yk4CvfF-12" edge="1">
          <mxGeometry relative="1" as="geometry">
            <mxPoint x="-715.0000000000005" y="512" as="targetPoint" />
          </mxGeometry>
        </mxCell>
        <mxCell id="jqyQrgZry3oG7Yk4CvfF-37" value="&lt;div&gt;1,1&lt;/div&gt;&lt;div&gt;&lt;br&gt;&lt;/div&gt;" style="edgeLabel;html=1;align=center;verticalAlign=middle;resizable=0;points=[];labelBackgroundColor=none;fontColor=#393C56;" parent="jqyQrgZry3oG7Yk4CvfF-34" vertex="1" connectable="0">
          <mxGeometry x="-0.6068" y="2" relative="1" as="geometry">
            <mxPoint as="offset" />
          </mxGeometry>
        </mxCell>
        <mxCell id="jqyQrgZry3oG7Yk4CvfF-39" value="Encaminha" style="shape=rhombus;double=1;perimeter=rhombusPerimeter;whiteSpace=wrap;html=1;align=center;labelBackgroundColor=none;fillColor=#F2CC8F;strokeColor=#E07A5F;fontColor=#393C56;" parent="1" vertex="1">
          <mxGeometry x="-302" y="472" width="120" height="60" as="geometry" />
        </mxCell>
        <mxCell id="jqyQrgZry3oG7Yk4CvfF-40" style="edgeStyle=orthogonalEdgeStyle;rounded=0;orthogonalLoop=1;jettySize=auto;html=1;exitX=0;exitY=0.25;exitDx=0;exitDy=0;entryX=0.5;entryY=0;entryDx=0;entryDy=0;labelBackgroundColor=none;strokeColor=#E07A5F;fontColor=default;" parent="1" source="jqyQrgZry3oG7Yk4CvfF-10" target="jqyQrgZry3oG7Yk4CvfF-39" edge="1">
          <mxGeometry relative="1" as="geometry">
            <Array as="points">
              <mxPoint x="-182" y="400" />
              <mxPoint x="-242" y="400" />
            </Array>
          </mxGeometry>
        </mxCell>
        <mxCell id="jqyQrgZry3oG7Yk4CvfF-42" value="&lt;div&gt;1,N&amp;nbsp;&lt;/div&gt;&lt;div&gt;&lt;br&gt;&lt;/div&gt;" style="edgeLabel;html=1;align=center;verticalAlign=middle;resizable=0;points=[];labelBackgroundColor=none;fontColor=#393C56;" parent="jqyQrgZry3oG7Yk4CvfF-40" vertex="1" connectable="0">
          <mxGeometry x="-0.5828" y="4" relative="1" as="geometry">
            <mxPoint as="offset" />
          </mxGeometry>
        </mxCell>
        <mxCell id="jqyQrgZry3oG7Yk4CvfF-41" style="edgeStyle=orthogonalEdgeStyle;rounded=0;orthogonalLoop=1;jettySize=auto;html=1;exitX=0.5;exitY=1;exitDx=0;exitDy=0;entryX=0.378;entryY=0.023;entryDx=0;entryDy=0;entryPerimeter=0;labelBackgroundColor=none;strokeColor=#E07A5F;fontColor=default;" parent="1" source="jqyQrgZry3oG7Yk4CvfF-39" target="jqyQrgZry3oG7Yk4CvfF-13" edge="1">
          <mxGeometry relative="1" as="geometry">
            <Array as="points">
              <mxPoint x="-242" y="592" />
              <mxPoint x="-242" y="592" />
            </Array>
          </mxGeometry>
        </mxCell>
        <mxCell id="jqyQrgZry3oG7Yk4CvfF-43" value="&lt;div&gt;1,N&lt;/div&gt;&lt;div&gt;&lt;br&gt;&lt;/div&gt;" style="edgeLabel;html=1;align=center;verticalAlign=middle;resizable=0;points=[];labelBackgroundColor=none;fontColor=#393C56;" parent="jqyQrgZry3oG7Yk4CvfF-41" vertex="1" connectable="0">
          <mxGeometry x="0.0927" relative="1" as="geometry">
            <mxPoint as="offset" />
          </mxGeometry>
        </mxCell>
        <mxCell id="jqyQrgZry3oG7Yk4CvfF-44" value="Gera" style="shape=rhombus;double=1;perimeter=rhombusPerimeter;whiteSpace=wrap;html=1;align=center;labelBackgroundColor=none;fillColor=#F2CC8F;strokeColor=#E07A5F;fontColor=#393C56;" parent="1" vertex="1">
          <mxGeometry x="-42" y="472" width="120" height="60" as="geometry" />
        </mxCell>
        <mxCell id="jqyQrgZry3oG7Yk4CvfF-45" style="edgeStyle=orthogonalEdgeStyle;rounded=0;orthogonalLoop=1;jettySize=auto;html=1;exitX=1;exitY=0.25;exitDx=0;exitDy=0;entryX=0.5;entryY=0;entryDx=0;entryDy=0;labelBackgroundColor=none;strokeColor=#E07A5F;fontColor=default;" parent="1" source="jqyQrgZry3oG7Yk4CvfF-10" target="jqyQrgZry3oG7Yk4CvfF-44" edge="1">
          <mxGeometry relative="1" as="geometry" />
        </mxCell>
        <mxCell id="jqyQrgZry3oG7Yk4CvfF-47" value="&lt;div&gt;1, N&lt;/div&gt;" style="edgeLabel;html=1;align=center;verticalAlign=middle;resizable=0;points=[];labelBackgroundColor=none;fontColor=#393C56;" parent="jqyQrgZry3oG7Yk4CvfF-45" vertex="1" connectable="0">
          <mxGeometry x="-0.5438" y="-2" relative="1" as="geometry">
            <mxPoint x="3" y="-12" as="offset" />
          </mxGeometry>
        </mxCell>
        <mxCell id="jqyQrgZry3oG7Yk4CvfF-46" style="edgeStyle=orthogonalEdgeStyle;rounded=0;orthogonalLoop=1;jettySize=auto;html=1;exitX=0.5;exitY=1;exitDx=0;exitDy=0;entryX=0.5;entryY=0;entryDx=0;entryDy=0;labelBackgroundColor=none;strokeColor=#E07A5F;fontColor=default;" parent="1" source="jqyQrgZry3oG7Yk4CvfF-44" target="jqyQrgZry3oG7Yk4CvfF-15" edge="1">
          <mxGeometry relative="1" as="geometry" />
        </mxCell>
        <mxCell id="jqyQrgZry3oG7Yk4CvfF-48" value="1,N" style="edgeLabel;html=1;align=center;verticalAlign=middle;resizable=0;points=[];labelBackgroundColor=none;fontColor=#393C56;" parent="jqyQrgZry3oG7Yk4CvfF-46" vertex="1" connectable="0">
          <mxGeometry x="-0.0941" relative="1" as="geometry">
            <mxPoint as="offset" />
          </mxGeometry>
        </mxCell>
        <mxCell id="7q9nNupDHfpOPj0fViD1-9" value="Convenio" style="swimlane;childLayout=stackLayout;horizontal=1;startSize=50;horizontalStack=0;rounded=1;fontSize=14;fontStyle=0;strokeWidth=2;resizeParent=0;resizeLast=1;shadow=0;dashed=0;align=center;arcSize=4;whiteSpace=wrap;html=1;labelBackgroundColor=none;fillColor=#F2CC8F;strokeColor=#E07A5F;fontColor=#393C56;" parent="1" vertex="1">
          <mxGeometry x="-182" y="12" width="160" height="150" as="geometry" />
        </mxCell>
        <mxCell id="7q9nNupDHfpOPj0fViD1-10" value="Pk_Id_Convenio&lt;div&gt;Organizacao&lt;/div&gt;&lt;div&gt;Nivel_Plano&lt;/div&gt;&lt;div&gt;Fk_Id_Medico&lt;/div&gt;&lt;div&gt;Fk_Id_Consulta&lt;/div&gt;&lt;div&gt;Fk_Id_Paciente&lt;/div&gt;&lt;div&gt;&lt;br&gt;&lt;/div&gt;" style="align=left;strokeColor=none;fillColor=none;spacingLeft=4;fontSize=12;verticalAlign=top;resizable=0;rotatable=0;part=1;html=1;labelBackgroundColor=none;fontColor=#393C56;" parent="7q9nNupDHfpOPj0fViD1-9" vertex="1">
          <mxGeometry y="50" width="160" height="100" as="geometry" />
        </mxCell>
        <mxCell id="7q9nNupDHfpOPj0fViD1-15" style="edgeStyle=orthogonalEdgeStyle;rounded=0;orthogonalLoop=1;jettySize=auto;html=1;exitX=0.5;exitY=1;exitDx=0;exitDy=0;labelBackgroundColor=none;strokeColor=#E07A5F;fontColor=default;" parent="1" source="7q9nNupDHfpOPj0fViD1-13" target="jqyQrgZry3oG7Yk4CvfF-1" edge="1">
          <mxGeometry relative="1" as="geometry">
            <Array as="points">
              <mxPoint x="-575" y="92" />
            </Array>
          </mxGeometry>
        </mxCell>
        <mxCell id="7q9nNupDHfpOPj0fViD1-17" value="1,1&lt;div&gt;&lt;br&gt;&lt;/div&gt;" style="edgeLabel;html=1;align=center;verticalAlign=middle;resizable=0;points=[];labelBackgroundColor=none;fontColor=#393C56;" parent="7q9nNupDHfpOPj0fViD1-15" vertex="1" connectable="0">
          <mxGeometry x="-0.1375" y="-1" relative="1" as="geometry">
            <mxPoint as="offset" />
          </mxGeometry>
        </mxCell>
        <mxCell id="7q9nNupDHfpOPj0fViD1-13" value="Passa/Atende" style="shape=rhombus;perimeter=rhombusPerimeter;whiteSpace=wrap;html=1;align=center;labelBackgroundColor=none;fillColor=#F2CC8F;strokeColor=#E07A5F;fontColor=#393C56;" parent="1" vertex="1">
          <mxGeometry x="-615" y="52" width="90" height="40" as="geometry" />
        </mxCell>
        <mxCell id="7q9nNupDHfpOPj0fViD1-14" style="edgeStyle=orthogonalEdgeStyle;rounded=0;orthogonalLoop=1;jettySize=auto;html=1;entryX=1;entryY=0.5;entryDx=0;entryDy=0;exitX=0.001;exitY=0.108;exitDx=0;exitDy=0;exitPerimeter=0;labelBackgroundColor=none;strokeColor=#E07A5F;fontColor=default;" parent="1" source="7q9nNupDHfpOPj0fViD1-10" target="7q9nNupDHfpOPj0fViD1-13" edge="1">
          <mxGeometry relative="1" as="geometry">
            <mxPoint x="-192" y="72" as="sourcePoint" />
          </mxGeometry>
        </mxCell>
        <mxCell id="7q9nNupDHfpOPj0fViD1-16" value="1,N" style="edgeLabel;html=1;align=center;verticalAlign=middle;resizable=0;points=[];labelBackgroundColor=none;fontColor=#393C56;" parent="7q9nNupDHfpOPj0fViD1-14" vertex="1" connectable="0">
          <mxGeometry x="-0.6431" relative="1" as="geometry">
            <mxPoint x="3" y="-10" as="offset" />
          </mxGeometry>
        </mxCell>
        <mxCell id="7q9nNupDHfpOPj0fViD1-18" value="Libera" style="shape=rhombus;perimeter=rhombusPerimeter;whiteSpace=wrap;html=1;align=center;labelBackgroundColor=none;fillColor=#F2CC8F;strokeColor=#E07A5F;fontColor=#393C56;" parent="1" vertex="1">
          <mxGeometry x="-127" y="207" width="50" height="36" as="geometry" />
        </mxCell>
        <mxCell id="7q9nNupDHfpOPj0fViD1-19" style="edgeStyle=orthogonalEdgeStyle;rounded=0;orthogonalLoop=1;jettySize=auto;html=1;exitX=0.5;exitY=1;exitDx=0;exitDy=0;entryX=0.5;entryY=0;entryDx=0;entryDy=0;labelBackgroundColor=none;strokeColor=#E07A5F;fontColor=default;" parent="1" source="7q9nNupDHfpOPj0fViD1-10" target="7q9nNupDHfpOPj0fViD1-18" edge="1">
          <mxGeometry relative="1" as="geometry" />
        </mxCell>
        <mxCell id="7q9nNupDHfpOPj0fViD1-21" value="1,N" style="edgeLabel;html=1;align=center;verticalAlign=middle;resizable=0;points=[];labelBackgroundColor=none;fontColor=#393C56;" parent="7q9nNupDHfpOPj0fViD1-19" vertex="1" connectable="0">
          <mxGeometry x="-0.1152" y="-2" relative="1" as="geometry">
            <mxPoint as="offset" />
          </mxGeometry>
        </mxCell>
        <mxCell id="7q9nNupDHfpOPj0fViD1-23" style="edgeStyle=orthogonalEdgeStyle;rounded=0;orthogonalLoop=1;jettySize=auto;html=1;exitX=1;exitY=0;exitDx=0;exitDy=0;entryX=0;entryY=0.5;entryDx=0;entryDy=0;labelBackgroundColor=none;strokeColor=#E07A5F;fontColor=default;" parent="1" source="7q9nNupDHfpOPj0fViD1-10" edge="1" target="7q9nNupDHfpOPj0fViD1-37">
          <mxGeometry relative="1" as="geometry">
            <mxPoint x="218" y="52" as="targetPoint" />
            <Array as="points">
              <mxPoint x="-22" y="66" />
              <mxPoint x="218" y="66" />
              <mxPoint x="218" y="68" />
            </Array>
          </mxGeometry>
        </mxCell>
        <mxCell id="7q9nNupDHfpOPj0fViD1-33" value="1,N&lt;div&gt;&lt;br&gt;&lt;/div&gt;" style="edgeLabel;html=1;align=center;verticalAlign=middle;resizable=0;points=[];labelBackgroundColor=none;fontColor=#393C56;" parent="7q9nNupDHfpOPj0fViD1-23" vertex="1" connectable="0">
          <mxGeometry x="0.0782" y="2" relative="1" as="geometry">
            <mxPoint as="offset" />
          </mxGeometry>
        </mxCell>
        <mxCell id="7q9nNupDHfpOPj0fViD1-32" style="edgeStyle=orthogonalEdgeStyle;rounded=0;orthogonalLoop=1;jettySize=auto;html=1;exitX=0.5;exitY=1;exitDx=0;exitDy=0;labelBackgroundColor=none;strokeColor=#E07A5F;fontColor=default;" parent="1" source="7q9nNupDHfpOPj0fViD1-37" edge="1">
          <mxGeometry relative="1" as="geometry">
            <mxPoint x="268.1538461538462" y="242" as="targetPoint" />
            <mxPoint x="268" y="82" as="sourcePoint" />
          </mxGeometry>
        </mxCell>
        <mxCell id="7q9nNupDHfpOPj0fViD1-34" value="1,N&lt;div&gt;&lt;br&gt;&lt;/div&gt;" style="edgeLabel;html=1;align=center;verticalAlign=middle;resizable=0;points=[];labelBackgroundColor=none;fontColor=#393C56;" parent="7q9nNupDHfpOPj0fViD1-32" vertex="1" connectable="0">
          <mxGeometry x="0.435" y="1" relative="1" as="geometry">
            <mxPoint as="offset" />
          </mxGeometry>
        </mxCell>
        <mxCell id="7q9nNupDHfpOPj0fViD1-37" value="Associado" style="shape=rhombus;perimeter=rhombusPerimeter;whiteSpace=wrap;html=1;align=center;labelBackgroundColor=none;fillColor=#F2CC8F;strokeColor=#E07A5F;fontColor=#393C56;" parent="1" vertex="1">
          <mxGeometry x="228" y="48" width="80" height="40" as="geometry" />
        </mxCell>
        <mxCell id="ocq4f6UYUsV3db6KCa3W-3" value="Gera" style="shape=rhombus;perimeter=rhombusPerimeter;whiteSpace=wrap;html=1;align=center;labelBackgroundColor=none;fillColor=#F2CC8F;strokeColor=#E07A5F;fontColor=#393C56;" vertex="1" parent="1">
          <mxGeometry x="-577" y="495" width="91" height="50" as="geometry" />
        </mxCell>
        <mxCell id="ocq4f6UYUsV3db6KCa3W-4" style="edgeStyle=orthogonalEdgeStyle;rounded=0;orthogonalLoop=1;jettySize=auto;html=1;entryX=0.002;entryY=0.162;entryDx=0;entryDy=0;entryPerimeter=0;exitX=1;exitY=0.5;exitDx=0;exitDy=0;labelBackgroundColor=none;strokeColor=#E07A5F;fontColor=default;" edge="1" parent="1" source="ocq4f6UYUsV3db6KCa3W-3" target="jqyQrgZry3oG7Yk4CvfF-9">
          <mxGeometry relative="1" as="geometry">
            <Array as="points">
              <mxPoint x="-400" y="520" />
              <mxPoint x="-400" y="330" />
            </Array>
          </mxGeometry>
        </mxCell>
        <mxCell id="ocq4f6UYUsV3db6KCa3W-7" value="1,1&lt;div&gt;&lt;br&gt;&lt;/div&gt;" style="edgeLabel;html=1;align=center;verticalAlign=middle;resizable=0;points=[];labelBackgroundColor=none;fontColor=#393C56;" vertex="1" connectable="0" parent="ocq4f6UYUsV3db6KCa3W-4">
          <mxGeometry x="0.8199" relative="1" as="geometry">
            <mxPoint as="offset" />
          </mxGeometry>
        </mxCell>
        <mxCell id="ocq4f6UYUsV3db6KCa3W-5" style="edgeStyle=orthogonalEdgeStyle;rounded=0;orthogonalLoop=1;jettySize=auto;html=1;exitX=0.5;exitY=1;exitDx=0;exitDy=0;entryX=0.635;entryY=0.008;entryDx=0;entryDy=0;entryPerimeter=0;labelBackgroundColor=none;strokeColor=#E07A5F;fontColor=default;" edge="1" parent="1" source="ocq4f6UYUsV3db6KCa3W-3" target="jqyQrgZry3oG7Yk4CvfF-11">
          <mxGeometry relative="1" as="geometry" />
        </mxCell>
        <mxCell id="ocq4f6UYUsV3db6KCa3W-6" value="1,1&lt;div&gt;&lt;br&gt;&lt;/div&gt;" style="edgeLabel;html=1;align=center;verticalAlign=middle;resizable=0;points=[];labelBackgroundColor=none;fontColor=#393C56;" vertex="1" connectable="0" parent="ocq4f6UYUsV3db6KCa3W-5">
          <mxGeometry x="0.179" y="1" relative="1" as="geometry">
            <mxPoint as="offset" />
          </mxGeometry>
        </mxCell>
        <mxCell id="ocq4f6UYUsV3db6KCa3W-8" value="Funcionario" style="swimlane;childLayout=stackLayout;horizontal=1;startSize=50;horizontalStack=0;rounded=1;fontSize=14;fontStyle=0;strokeWidth=2;resizeParent=0;resizeLast=1;shadow=0;dashed=0;align=center;arcSize=4;whiteSpace=wrap;html=1;labelBackgroundColor=none;fillColor=#F2CC8F;strokeColor=#E07A5F;fontColor=#393C56;" vertex="1" parent="1">
          <mxGeometry x="476" y="368" width="160" height="198" as="geometry" />
        </mxCell>
        <mxCell id="ocq4f6UYUsV3db6KCa3W-9" value="Pk_Id_Funcionario&lt;div&gt;Fk_Id_Medico&lt;/div&gt;&lt;div&gt;Data_Nascimento&lt;/div&gt;&lt;div&gt;Cargo&lt;/div&gt;&lt;div&gt;Departamento&lt;/div&gt;&lt;div&gt;Endereco&lt;/div&gt;&lt;div&gt;Telefone&lt;/div&gt;&lt;div&gt;Email&lt;/div&gt;&lt;div&gt;Data_Contrato&lt;/div&gt;&lt;div&gt;&lt;br&gt;&lt;/div&gt;" style="align=left;strokeColor=none;fillColor=none;spacingLeft=4;fontSize=12;verticalAlign=top;resizable=0;rotatable=0;part=1;html=1;labelBackgroundColor=none;fontColor=#393C56;" vertex="1" parent="ocq4f6UYUsV3db6KCa3W-8">
          <mxGeometry y="50" width="160" height="148" as="geometry" />
        </mxCell>
        <mxCell id="ocq4f6UYUsV3db6KCa3W-10" value="Faz parte" style="shape=rhombus;perimeter=rhombusPerimeter;whiteSpace=wrap;html=1;align=center;labelBackgroundColor=none;fillColor=#F2CC8F;strokeColor=#E07A5F;fontColor=#393C56;" vertex="1" parent="1">
          <mxGeometry x="457" y="285" width="84" height="58" as="geometry" />
        </mxCell>
        <mxCell id="ocq4f6UYUsV3db6KCa3W-11" style="edgeStyle=orthogonalEdgeStyle;rounded=0;orthogonalLoop=1;jettySize=auto;html=1;exitX=1;exitY=0.25;exitDx=0;exitDy=0;entryX=0;entryY=0.5;entryDx=0;entryDy=0;labelBackgroundColor=none;strokeColor=#E07A5F;fontColor=default;" edge="1" parent="1" source="jqyQrgZry3oG7Yk4CvfF-8" target="ocq4f6UYUsV3db6KCa3W-10">
          <mxGeometry relative="1" as="geometry">
            <mxPoint x="403" y="363" as="targetPoint" />
            <Array as="points">
              <mxPoint x="328" y="315" />
              <mxPoint x="431" y="315" />
            </Array>
          </mxGeometry>
        </mxCell>
        <mxCell id="ocq4f6UYUsV3db6KCa3W-64" value="1,1&lt;div&gt;&lt;br&gt;&lt;/div&gt;" style="edgeLabel;html=1;align=center;verticalAlign=middle;resizable=0;points=[];labelBackgroundColor=none;fontColor=#393C56;" vertex="1" connectable="0" parent="ocq4f6UYUsV3db6KCa3W-11">
          <mxGeometry x="-0.4054" y="2" relative="1" as="geometry">
            <mxPoint as="offset" />
          </mxGeometry>
        </mxCell>
        <mxCell id="ocq4f6UYUsV3db6KCa3W-18" style="edgeStyle=orthogonalEdgeStyle;rounded=0;orthogonalLoop=1;jettySize=auto;html=1;exitX=0.5;exitY=0;exitDx=0;exitDy=0;entryX=0.5;entryY=1;entryDx=0;entryDy=0;labelBackgroundColor=none;strokeColor=#E07A5F;fontColor=default;" edge="1" parent="1" source="ocq4f6UYUsV3db6KCa3W-13" target="ocq4f6UYUsV3db6KCa3W-17">
          <mxGeometry relative="1" as="geometry">
            <Array as="points">
              <mxPoint x="404" y="691" />
            </Array>
          </mxGeometry>
        </mxCell>
        <mxCell id="ocq4f6UYUsV3db6KCa3W-67" value="1,N" style="edgeLabel;html=1;align=center;verticalAlign=middle;resizable=0;points=[];labelBackgroundColor=none;fontColor=#393C56;" vertex="1" connectable="0" parent="ocq4f6UYUsV3db6KCa3W-18">
          <mxGeometry x="-0.146" y="-2" relative="1" as="geometry">
            <mxPoint as="offset" />
          </mxGeometry>
        </mxCell>
        <mxCell id="ocq4f6UYUsV3db6KCa3W-50" style="edgeStyle=orthogonalEdgeStyle;rounded=0;orthogonalLoop=1;jettySize=auto;html=1;exitX=0;exitY=0.25;exitDx=0;exitDy=0;entryX=0.5;entryY=1;entryDx=0;entryDy=0;labelBackgroundColor=none;strokeColor=#E07A5F;fontColor=default;" edge="1" parent="1" source="ocq4f6UYUsV3db6KCa3W-13" target="ocq4f6UYUsV3db6KCa3W-24">
          <mxGeometry relative="1" as="geometry" />
        </mxCell>
        <mxCell id="ocq4f6UYUsV3db6KCa3W-55" value="1,N" style="edgeLabel;html=1;align=center;verticalAlign=middle;resizable=0;points=[];labelBackgroundColor=none;fontColor=#393C56;" vertex="1" connectable="0" parent="ocq4f6UYUsV3db6KCa3W-50">
          <mxGeometry x="-0.6059" y="1" relative="1" as="geometry">
            <mxPoint x="1" as="offset" />
          </mxGeometry>
        </mxCell>
        <mxCell id="ocq4f6UYUsV3db6KCa3W-13" value="Sala" style="swimlane;childLayout=stackLayout;horizontal=1;startSize=50;horizontalStack=0;rounded=1;fontSize=14;fontStyle=0;strokeWidth=2;resizeParent=0;resizeLast=1;shadow=0;dashed=0;align=center;arcSize=4;whiteSpace=wrap;html=1;labelBackgroundColor=none;fillColor=#F2CC8F;strokeColor=#E07A5F;fontColor=#393C56;" vertex="1" parent="1">
          <mxGeometry x="333" y="691" width="160" height="181" as="geometry" />
        </mxCell>
        <mxCell id="ocq4f6UYUsV3db6KCa3W-14" value="Pk_Id_Sala&lt;div&gt;Numero_Sala&lt;/div&gt;&lt;div&gt;Capacidade_Sala&lt;/div&gt;&lt;div&gt;Localidade_Sala&lt;/div&gt;&lt;div&gt;Especialidade_Sala&lt;/div&gt;&lt;div&gt;Fk_Id_Paciente&lt;/div&gt;&lt;div&gt;Fk_Id_Medico&lt;/div&gt;&lt;div&gt;Fk_Id_Funcionario&lt;/div&gt;" style="align=left;strokeColor=none;fillColor=none;spacingLeft=4;fontSize=12;verticalAlign=top;resizable=0;rotatable=0;part=1;html=1;labelBackgroundColor=none;fontColor=#393C56;" vertex="1" parent="ocq4f6UYUsV3db6KCa3W-13">
          <mxGeometry y="50" width="160" height="131" as="geometry" />
        </mxCell>
        <mxCell id="ocq4f6UYUsV3db6KCa3W-17" value="Alocar" style="shape=rhombus;perimeter=rhombusPerimeter;whiteSpace=wrap;html=1;align=center;labelBackgroundColor=none;fillColor=#F2CC8F;strokeColor=#E07A5F;fontColor=#393C56;" vertex="1" parent="1">
          <mxGeometry x="366" y="535" width="78" height="48" as="geometry" />
        </mxCell>
        <mxCell id="ocq4f6UYUsV3db6KCa3W-48" style="edgeStyle=orthogonalEdgeStyle;rounded=0;orthogonalLoop=1;jettySize=auto;html=1;exitX=0.5;exitY=0;exitDx=0;exitDy=0;entryX=0.75;entryY=1;entryDx=0;entryDy=0;labelBackgroundColor=none;strokeColor=#E07A5F;fontColor=default;" edge="1" parent="1" source="ocq4f6UYUsV3db6KCa3W-24" target="jqyQrgZry3oG7Yk4CvfF-8">
          <mxGeometry relative="1" as="geometry">
            <Array as="points">
              <mxPoint x="280" y="392" />
            </Array>
          </mxGeometry>
        </mxCell>
        <mxCell id="ocq4f6UYUsV3db6KCa3W-54" value="1,1&lt;div&gt;&lt;br&gt;&lt;/div&gt;" style="edgeLabel;html=1;align=center;verticalAlign=middle;resizable=0;points=[];labelBackgroundColor=none;fontColor=#393C56;" vertex="1" connectable="0" parent="ocq4f6UYUsV3db6KCa3W-48">
          <mxGeometry x="0.4062" relative="1" as="geometry">
            <mxPoint as="offset" />
          </mxGeometry>
        </mxCell>
        <mxCell id="ocq4f6UYUsV3db6KCa3W-24" value="Alocado" style="shape=rhombus;perimeter=rhombusPerimeter;whiteSpace=wrap;html=1;align=center;labelBackgroundColor=none;fillColor=#F2CC8F;strokeColor=#E07A5F;fontColor=#393C56;" vertex="1" parent="1">
          <mxGeometry x="226" y="552" width="107" height="48" as="geometry" />
        </mxCell>
        <mxCell id="ocq4f6UYUsV3db6KCa3W-31" style="edgeStyle=orthogonalEdgeStyle;rounded=0;orthogonalLoop=1;jettySize=auto;html=1;exitX=0.5;exitY=0;exitDx=0;exitDy=0;entryX=0.5;entryY=1;entryDx=0;entryDy=0;labelBackgroundColor=none;strokeColor=#E07A5F;fontColor=default;" edge="1" parent="1" source="ocq4f6UYUsV3db6KCa3W-28" target="ocq4f6UYUsV3db6KCa3W-30">
          <mxGeometry relative="1" as="geometry" />
        </mxCell>
        <mxCell id="ocq4f6UYUsV3db6KCa3W-62" value="1,N&lt;div&gt;&lt;br&gt;&lt;/div&gt;" style="edgeLabel;html=1;align=center;verticalAlign=middle;resizable=0;points=[];labelBackgroundColor=none;fontColor=#393C56;" vertex="1" connectable="0" parent="ocq4f6UYUsV3db6KCa3W-31">
          <mxGeometry x="-0.6403" y="-1" relative="1" as="geometry">
            <mxPoint y="1" as="offset" />
          </mxGeometry>
        </mxCell>
        <mxCell id="ocq4f6UYUsV3db6KCa3W-39" style="edgeStyle=orthogonalEdgeStyle;rounded=0;orthogonalLoop=1;jettySize=auto;html=1;exitX=0.25;exitY=0;exitDx=0;exitDy=0;entryX=0.5;entryY=1;entryDx=0;entryDy=0;labelBackgroundColor=none;strokeColor=#E07A5F;fontColor=default;" edge="1" parent="1" source="ocq4f6UYUsV3db6KCa3W-28" target="ocq4f6UYUsV3db6KCa3W-33">
          <mxGeometry relative="1" as="geometry" />
        </mxCell>
        <mxCell id="ocq4f6UYUsV3db6KCa3W-60" value="1,N" style="edgeLabel;html=1;align=center;verticalAlign=middle;resizable=0;points=[];labelBackgroundColor=none;fontColor=#393C56;" vertex="1" connectable="0" parent="ocq4f6UYUsV3db6KCa3W-39">
          <mxGeometry x="0.0046" y="-2" relative="1" as="geometry">
            <mxPoint x="-1" as="offset" />
          </mxGeometry>
        </mxCell>
        <mxCell id="ocq4f6UYUsV3db6KCa3W-28" value="Pagamento" style="swimlane;childLayout=stackLayout;horizontal=1;startSize=50;horizontalStack=0;rounded=1;fontSize=14;fontStyle=0;strokeWidth=2;resizeParent=0;resizeLast=1;shadow=0;dashed=0;align=center;arcSize=4;whiteSpace=wrap;html=1;labelBackgroundColor=none;fillColor=#F2CC8F;strokeColor=#E07A5F;fontColor=#393C56;" vertex="1" parent="1">
          <mxGeometry x="-191" y="900" width="160" height="194" as="geometry" />
        </mxCell>
        <mxCell id="ocq4f6UYUsV3db6KCa3W-29" value="Pk_Id_Pagamento&lt;div&gt;Data_Pagamento&lt;/div&gt;&lt;div&gt;Valor&lt;/div&gt;&lt;div&gt;Metodo_Pagamento&lt;/div&gt;&lt;div&gt;Fk_Id_Paciente&lt;/div&gt;&lt;div&gt;Fk_Id_Medico&lt;/div&gt;&lt;div&gt;Fk_Id_Consulta&lt;/div&gt;&lt;div&gt;Fk_Id_Exame&lt;/div&gt;&lt;div&gt;Fk_Id_Funcionario&lt;/div&gt;" style="align=left;strokeColor=none;fillColor=none;spacingLeft=4;fontSize=12;verticalAlign=top;resizable=0;rotatable=0;part=1;html=1;labelBackgroundColor=none;fontColor=#393C56;" vertex="1" parent="ocq4f6UYUsV3db6KCa3W-28">
          <mxGeometry y="50" width="160" height="144" as="geometry" />
        </mxCell>
        <mxCell id="ocq4f6UYUsV3db6KCa3W-30" value="Libera" style="shape=rhombus;perimeter=rhombusPerimeter;whiteSpace=wrap;html=1;align=center;labelBackgroundColor=none;fillColor=#F2CC8F;strokeColor=#E07A5F;fontColor=#393C56;" vertex="1" parent="1">
          <mxGeometry x="-163.5" y="540" width="105" height="50" as="geometry" />
        </mxCell>
        <mxCell id="ocq4f6UYUsV3db6KCa3W-32" style="edgeStyle=orthogonalEdgeStyle;rounded=0;orthogonalLoop=1;jettySize=auto;html=1;exitX=0.5;exitY=0;exitDx=0;exitDy=0;entryX=0.456;entryY=1;entryDx=0;entryDy=0;entryPerimeter=0;labelBackgroundColor=none;strokeColor=#E07A5F;fontColor=default;" edge="1" parent="1" source="ocq4f6UYUsV3db6KCa3W-30" target="jqyQrgZry3oG7Yk4CvfF-10">
          <mxGeometry relative="1" as="geometry">
            <mxPoint x="-112" y="456" as="targetPoint" />
            <Array as="points">
              <mxPoint x="-111" y="452" />
            </Array>
          </mxGeometry>
        </mxCell>
        <mxCell id="ocq4f6UYUsV3db6KCa3W-63" value="1,1&lt;div&gt;&lt;br&gt;&lt;/div&gt;" style="edgeLabel;html=1;align=center;verticalAlign=middle;resizable=0;points=[];labelBackgroundColor=none;fontColor=#393C56;" vertex="1" connectable="0" parent="ocq4f6UYUsV3db6KCa3W-32">
          <mxGeometry x="0.2116" y="1" relative="1" as="geometry">
            <mxPoint y="1" as="offset" />
          </mxGeometry>
        </mxCell>
        <mxCell id="ocq4f6UYUsV3db6KCa3W-33" value="Libera" style="shape=rhombus;perimeter=rhombusPerimeter;whiteSpace=wrap;html=1;align=center;labelBackgroundColor=none;fillColor=#F2CC8F;strokeColor=#E07A5F;fontColor=#393C56;" vertex="1" parent="1">
          <mxGeometry x="-292" y="799" width="86" height="55" as="geometry" />
        </mxCell>
        <mxCell id="ocq4f6UYUsV3db6KCa3W-35" style="edgeStyle=orthogonalEdgeStyle;rounded=0;orthogonalLoop=1;jettySize=auto;html=1;exitX=0.5;exitY=0;exitDx=0;exitDy=0;entryX=0.337;entryY=1.039;entryDx=0;entryDy=0;entryPerimeter=0;labelBackgroundColor=none;strokeColor=#E07A5F;fontColor=default;" edge="1" parent="1" source="ocq4f6UYUsV3db6KCa3W-33" target="jqyQrgZry3oG7Yk4CvfF-14">
          <mxGeometry relative="1" as="geometry" />
        </mxCell>
        <mxCell id="ocq4f6UYUsV3db6KCa3W-61" value="N,1" style="edgeLabel;html=1;align=center;verticalAlign=middle;resizable=0;points=[];labelBackgroundColor=none;fontColor=#393C56;" vertex="1" connectable="0" parent="ocq4f6UYUsV3db6KCa3W-35">
          <mxGeometry x="0.3839" y="-3" relative="1" as="geometry">
            <mxPoint x="-2" y="13" as="offset" />
          </mxGeometry>
        </mxCell>
        <mxCell id="ocq4f6UYUsV3db6KCa3W-40" value="Verifica" style="shape=rhombus;perimeter=rhombusPerimeter;whiteSpace=wrap;html=1;align=center;labelBackgroundColor=none;fillColor=#F2CC8F;strokeColor=#E07A5F;fontColor=#393C56;" vertex="1" parent="1">
          <mxGeometry x="-577" y="804" width="86" height="55" as="geometry" />
        </mxCell>
        <mxCell id="ocq4f6UYUsV3db6KCa3W-42" style="edgeStyle=orthogonalEdgeStyle;rounded=0;orthogonalLoop=1;jettySize=auto;html=1;exitX=0;exitY=0.5;exitDx=0;exitDy=0;entryX=0.005;entryY=0.134;entryDx=0;entryDy=0;entryPerimeter=0;labelBackgroundColor=none;strokeColor=#E07A5F;fontColor=default;" edge="1" parent="1" source="ocq4f6UYUsV3db6KCa3W-40" target="jqyQrgZry3oG7Yk4CvfF-1">
          <mxGeometry relative="1" as="geometry">
            <Array as="points">
              <mxPoint x="-800" y="832" />
              <mxPoint x="-800" y="279" />
            </Array>
          </mxGeometry>
        </mxCell>
        <mxCell id="ocq4f6UYUsV3db6KCa3W-57" value="1,N&lt;div&gt;&lt;br&gt;&lt;/div&gt;" style="edgeLabel;html=1;align=center;verticalAlign=middle;resizable=0;points=[];labelBackgroundColor=none;fontColor=#393C56;" vertex="1" connectable="0" parent="ocq4f6UYUsV3db6KCa3W-42">
          <mxGeometry x="0.7134" y="2" relative="1" as="geometry">
            <mxPoint x="-1" as="offset" />
          </mxGeometry>
        </mxCell>
        <mxCell id="ocq4f6UYUsV3db6KCa3W-43" style="edgeStyle=orthogonalEdgeStyle;rounded=0;orthogonalLoop=1;jettySize=auto;html=1;exitX=1;exitY=0.5;exitDx=0;exitDy=0;entryX=0.6;entryY=0.005;entryDx=0;entryDy=0;entryPerimeter=0;labelBackgroundColor=none;strokeColor=#E07A5F;fontColor=default;" edge="1" parent="1" source="ocq4f6UYUsV3db6KCa3W-10" target="ocq4f6UYUsV3db6KCa3W-8">
          <mxGeometry relative="1" as="geometry" />
        </mxCell>
        <mxCell id="ocq4f6UYUsV3db6KCa3W-65" value="1,1&lt;div&gt;&lt;br&gt;&lt;/div&gt;" style="edgeLabel;html=1;align=center;verticalAlign=middle;resizable=0;points=[];labelBackgroundColor=none;fontColor=#393C56;" vertex="1" connectable="0" parent="ocq4f6UYUsV3db6KCa3W-43">
          <mxGeometry x="0.0938" relative="1" as="geometry">
            <mxPoint as="offset" />
          </mxGeometry>
        </mxCell>
        <mxCell id="ocq4f6UYUsV3db6KCa3W-49" style="edgeStyle=orthogonalEdgeStyle;rounded=0;orthogonalLoop=1;jettySize=auto;html=1;exitX=0.5;exitY=0;exitDx=0;exitDy=0;entryX=0;entryY=0.14;entryDx=0;entryDy=0;entryPerimeter=0;labelBackgroundColor=none;strokeColor=#E07A5F;fontColor=default;" edge="1" parent="1" source="ocq4f6UYUsV3db6KCa3W-17" target="ocq4f6UYUsV3db6KCa3W-8">
          <mxGeometry relative="1" as="geometry" />
        </mxCell>
        <mxCell id="ocq4f6UYUsV3db6KCa3W-66" value="N,1&lt;div&gt;&lt;br&gt;&lt;/div&gt;" style="edgeLabel;html=1;align=center;verticalAlign=middle;resizable=0;points=[];labelBackgroundColor=none;fontColor=#393C56;" vertex="1" connectable="0" parent="ocq4f6UYUsV3db6KCa3W-49">
          <mxGeometry x="0.0615" y="-1" relative="1" as="geometry">
            <mxPoint y="1" as="offset" />
          </mxGeometry>
        </mxCell>
        <mxCell id="ocq4f6UYUsV3db6KCa3W-53" style="edgeStyle=orthogonalEdgeStyle;rounded=0;orthogonalLoop=1;jettySize=auto;html=1;exitX=0;exitY=0;exitDx=0;exitDy=0;entryX=1;entryY=0.5;entryDx=0;entryDy=0;labelBackgroundColor=none;strokeColor=#E07A5F;fontColor=default;" edge="1" parent="1" source="ocq4f6UYUsV3db6KCa3W-29" target="ocq4f6UYUsV3db6KCa3W-40">
          <mxGeometry relative="1" as="geometry">
            <Array as="points">
              <mxPoint x="-191" y="930" />
              <mxPoint x="-450" y="930" />
              <mxPoint x="-450" y="832" />
            </Array>
          </mxGeometry>
        </mxCell>
        <mxCell id="ocq4f6UYUsV3db6KCa3W-59" value="N,1" style="edgeLabel;html=1;align=center;verticalAlign=middle;resizable=0;points=[];labelBackgroundColor=none;fontColor=#393C56;" vertex="1" connectable="0" parent="ocq4f6UYUsV3db6KCa3W-53">
          <mxGeometry x="-0.6193" relative="1" as="geometry">
            <mxPoint as="offset" />
          </mxGeometry>
        </mxCell>
      </root>
    </mxGraphModel>
  </diagram>
  <diagram id="TRp5epsPU_lbjr7dnYMk" name="PÃ¡gina-2">
    <mxGraphModel dx="1266" dy="569" grid="1" gridSize="10" guides="1" tooltips="1" connect="1" arrows="1" fold="1" page="1" pageScale="1" pageWidth="827" pageHeight="1169" math="0" shadow="0">
      <root>
        <mxCell id="0" />
        <mxCell id="1" parent="0" />
      </root>
    </mxGraphModel>
  </diagram>
</mxfile>
